<?xml version="1.0" encoding="UTF-8"?>
<svg width="151px" height="32px" viewBox="0 0 151 32" version="1.1" xmlns="http://www.w3.org/2000/svg" xmlns:xlink="http://www.w3.org/1999/xlink">
    <title>3i-visa</title>
    <g id="Page-1" stroke="none" stroke-width="1" fill="none" fill-rule="evenodd">
        <g id="Artboard" transform="translate(-3258.000000, -740.000000)" fill-rule="nonzero">
            <g id="3i-visa" transform="translate(3258.728802, 740.355387)">
                <g id="visa" transform="translate(44.769823, 0.484738)" fill="#000000">
                    <path d="M14.76085,30.5833717 C13.5729339,30.5833717 12.5463957,30.2795189 11.6812353,29.6718133 C10.816075,29.0641077 10.1060436,28.1391141 9.55114116,26.8968325 L0.501170145,6.00081972 C0.0662466283,4.95787813 -0.0856016683,3.99070446 0.0456252547,3.09929872 C0.176852178,2.20789298 0.611931916,1.48848824 1.35086447,0.941084505 C2.08979703,0.393680769 3.10539968,0.119978901 4.39767242,0.119978901 C5.49310478,0.119978901 6.37716807,0.370559835 7.04986227,0.871721703 C7.72255647,1.37288357 8.3288561,2.33490189 8.86876116,3.75777667 L15.9531403,21.7011837 L14.0409766,21.7011837 L21.4018696,3.67904052 C21.9417747,2.32115431 22.5580726,1.38850582 23.2507633,0.881095054 C23.9434539,0.373684286 24.8837573,0.119978901 26.0716734,0.119978901 C27.1021172,0.119978901 27.9304091,0.393680769 28.5565489,0.941084505 C29.1826888,1.48848824 29.5684023,2.20101919 29.7136892,3.07867735 C29.8589762,3.95633551 29.6938489,4.91663538 29.2183076,5.95957697 L19.9696215,26.9155792 C19.4422143,28.1578608 18.7490549,29.0797299 17.8901434,29.6811866 C17.031232,30.2826434 15.9881342,30.5833717 14.76085,30.5833717 Z" id="Path"></path>
                    <path d="M38.4130064,30.542129 C36.9626364,30.542129 35.8486136,30.1132982 35.0709378,29.2556365 C34.2932621,28.3979748 33.9044242,27.1852193 33.9044242,25.61737 L33.9044242,5.0859806 C33.9044242,3.49063615 34.2932621,2.27100688 35.0709378,1.42709279 C35.8486136,0.583178695 36.9626364,0.161221648 38.4130064,0.161221648 C39.8633763,0.161221648 40.984273,0.583178695 41.7756963,1.42709279 C42.5671196,2.27100688 42.9628313,3.49063615 42.9628313,5.0859806 L42.9628313,25.61737 C42.9628313,27.1852193 42.5771178,28.3979748 41.805691,29.2556365 C41.0342642,30.1132982 39.9033693,30.542129 38.4130064,30.542129 Z" id="Shape"></path>
                    <path d="M60.8127365,30.7033506 C59.0555455,30.7033506 57.2453951,30.5452534 55.3822852,30.2290591 C53.5191754,29.9128647 51.834003,29.3713974 50.326768,28.6046572 C49.5112864,28.2047275 48.9327944,27.6971605 48.591292,27.0819562 C48.2497895,26.4667519 48.0996597,25.8359254 48.1409024,25.1894765 C48.1821452,24.5430277 48.3916396,23.9667228 48.7693857,23.4605618 C49.1471317,22.9544008 49.6465751,22.6068057 50.2677159,22.4177765 C50.8888567,22.2287472 51.5821723,22.2942044 52.3476626,22.6141482 C53.9723769,23.2990277 55.4721132,23.7820678 56.8468714,24.0632683 C58.2216297,24.3444689 59.5573323,24.4850692 60.8539793,24.4850692 C62.5605542,24.4850692 63.8117404,24.2115235 64.6075379,23.6644322 C65.4033355,23.1173409 65.8012343,22.4038727 65.8012343,21.5240274 C65.8012343,20.7547877 65.5383117,20.1672347 65.0124667,19.7613686 C64.4866217,19.3555025 63.7228498,19.063835 62.7211509,18.8863662 L56.4025746,17.7653134 C53.9230106,17.3103934 52.0177207,16.4005534 50.6867047,15.0357934 C49.3556888,13.6710334 48.6901808,11.8975952 48.6901808,9.71547898 C48.6901808,7.72020486 49.2482077,5.99769527 50.3642614,4.54795022 C51.4803152,3.09820516 53.0251997,1.9777772 54.9989152,1.18666632 C56.9726306,0.395555439 59.2358263,-8.22927412e-14 61.7885024,-8.22927412e-14 C63.5731886,-8.22927412e-14 65.2196178,0.164814766 66.7277901,0.494444299 C68.2359624,0.824073832 69.703673,1.35132486 71.130922,2.07619739 C71.8564194,2.42113673 72.3635177,2.89121031 72.652217,3.48641814 C72.9409162,4.08162597 73.0346497,4.70229807 72.9334175,5.34843445 C72.8321853,5.99457082 72.5859786,6.57462507 72.1947974,7.08859718 C71.8036162,7.6025693 71.2943308,7.94094729 70.6669411,8.10373116 C70.0395514,8.26651504 69.3231149,8.1816862 68.5176316,7.84924467 C67.2403562,7.27184621 66.0599388,6.85566939 64.9763793,6.60071423 C63.8928199,6.34575906 62.8689374,6.21828148 61.904732,6.21828148 C60.0950502,6.21828148 58.7860617,6.49870092 57.9777663,7.05953979 C57.169471,7.62037866 56.7653233,8.35415587 56.7653233,9.26087142 C56.7653233,9.9257545 56.9984073,10.4879994 57.4645753,10.9476061 C57.9307433,11.4072127 58.6434305,11.7182518 59.6026368,11.8807232 L65.9212132,13.0017761 C68.5082582,13.4566961 70.4810363,14.3365413 71.8395474,15.6413119 C73.1980585,16.9460824 73.877314,18.7095223 73.877314,20.9316316 C73.877314,24.0017167 72.687367,26.3978578 70.3074731,28.1200549 C67.9275791,29.8422521 64.7626669,30.7033506 60.8127365,30.7033506 Z" id="Path"></path>
                    <path d="M88.6037256,30.7033506 C86.4084867,30.7033506 84.459142,30.2871738 82.7556915,29.4548202 C81.0522411,28.6224666 79.7212251,27.4907906 78.7626437,26.0597922 C77.8040623,24.6287939 77.3247716,23.0084538 77.3247716,21.1987721 C77.3247716,19.0391519 77.8846731,17.332577 79.0044762,16.0790474 C80.1242793,14.8255178 81.9377104,13.9219268 84.4447695,13.3682741 C86.9518286,12.8146215 90.2937409,12.5377952 94.4705064,12.5377952 L97.6199526,12.5377952 L97.6199526,17.2141603 L94.4930024,17.2141603 C92.4639843,17.2141603 90.8255224,17.3310147 89.5776168,17.5647236 C88.3297113,17.7984325 87.4303382,18.1738353 86.8794976,18.6909318 C86.3286569,19.2080284 86.0532366,19.911186 86.0532366,20.8004046 C86.0532366,21.9327055 86.4473861,22.8592613 87.2356849,23.5800721 C88.0239838,24.3008828 89.1439431,24.6612882 90.5955628,24.6612882 C91.7522344,24.6612882 92.7809598,24.3952412 93.6817389,23.8631473 C94.582518,23.3310534 95.3016102,22.5971199 95.8390157,21.661347 C96.3764212,20.725574 96.645124,19.6452953 96.645124,18.4205106 L96.645124,11.5029771 C96.645124,9.76640752 96.2426947,8.53021866 95.4378363,7.79441056 C94.6329778,7.05860246 93.2597818,6.6906984 91.3182482,6.6906984 C90.2459368,6.6906984 89.0775485,6.81505153 87.8130834,7.0637578 C86.5486183,7.31246406 85.1702669,7.74551291 83.6780293,8.36290434 C82.7675644,8.73533884 81.9755162,8.81329388 81.3018847,8.59676946 C80.6282531,8.38024504 80.1094381,7.98140892 79.7454396,7.40026112 C79.3814411,6.81911332 79.2025664,6.17844474 79.2088153,5.47825537 C79.2150642,4.778066 79.422059,4.1005289 79.8297998,3.44564406 C80.2375406,2.79075923 80.896331,2.29803338 81.806171,1.96746651 C83.671468,1.23259574 85.4381885,0.720966964 87.1063327,0.432580178 C88.7744768,0.144193393 90.295928,-8.22927412e-14 91.6706863,-8.22927412e-14 C94.7507696,-8.22927412e-14 97.2864175,0.45554489 99.2776298,1.36663467 C101.268842,2.27772445 102.758736,3.66388693 103.747313,5.52512213 C104.735889,7.38635732 105.230177,9.77296887 105.230177,12.6849568 L105.230177,25.9735574 C105.230177,27.4639203 104.870865,28.6048134 104.152241,29.3962368 C103.433618,30.1876601 102.395363,30.5833717 101.037477,30.5833717 C99.6795904,30.5833717 98.631181,30.1876601 97.8922484,29.3962368 C97.1533159,28.6048134 96.7838496,27.4639203 96.7838496,25.9735574 L96.7838496,23.7520731 L97.2075251,24.1466912 C96.9650677,25.483956 96.4557823,26.6404714 95.6796688,27.6162373 C94.9035552,28.5920032 93.9176349,29.3504636 92.7219076,29.8916184 C91.5261804,30.4327732 90.1534531,30.7033506 88.6037256,30.7033506 Z" id="Path"></path>
                </g>
                <g id="3i" transform="translate(-0.000000, 0.000000)" fill="#009966">
                    <path d="M29.7220363,30.4633928 C28.3116593,30.4633928 27.280122,29.9951939 26.6274243,29.0587961 C25.9747265,28.1223983 25.7733557,26.8302817 26.0233118,25.1824465 L29.3189822,4.48983544 C29.5564404,2.99947253 30.1102493,1.87857589 30.9804088,1.12714554 C31.8505682,0.375715178 33.0370783,-4.11463706e-14 34.5399391,-4.11463706e-14 C35.950316,-4.11463706e-14 36.9818534,0.461325123 37.6345511,1.38397537 C38.2872488,2.30662562 38.4886197,3.60561593 38.2386636,5.28094632 L34.9429932,25.9735574 C34.7055349,27.4639203 34.1585999,28.5848169 33.302188,29.3362473 C32.4457761,30.0876777 31.2523922,30.4633928 29.7220363,30.4633928 Z" id="Path"></path>
                    <path d="M16.6553922,30.5080137 C15.2450152,30.5080137 14.2134778,30.0398148 13.5607801,29.103417 C12.9080824,28.1670192 12.7067116,26.8749026 12.9566676,25.2270674 L16.252338,4.53445633 C16.4897963,3.04409342 17.0436051,1.92319679 17.9137646,1.17176643 C18.7839241,0.420336074 19.9704342,0.044620896 21.4732949,0.044620896 C22.8836719,0.044620896 23.9152092,0.505946019 24.5679069,1.42859627 C25.2206047,2.35124651 25.4219755,3.65023683 25.1720195,5.32556721 L21.876349,26.0181783 C21.6388908,27.5085412 21.0919557,28.6294378 20.2355438,29.3808682 C19.3791319,30.1322986 18.185748,30.5080137 16.6553922,30.5080137 Z" id="Path"></path>
                    <path d="M3.80254846,30.504659 C2.39217148,30.504659 1.36063413,30.0364601 0.707936415,29.1000622 C0.0552386959,28.1636644 -0.146132142,26.8715479 0.103823902,25.2237127 L3.39949434,4.53110157 C3.63695258,3.04073866 4.19076144,1.91984202 5.06092092,1.16841167 C5.9310804,0.416981309 7.11759049,0.0412661305 8.62045121,0.0412661305 C10.0308282,0.0412661305 11.0623655,0.502591254 11.7150633,1.4252415 C12.367761,2.34789175 12.5691318,3.64688206 12.3191758,5.32221245 L9.02350533,26.0148235 C8.78604708,27.5051864 8.23911202,28.6260831 7.38270012,29.3775134 C6.52628823,30.1289438 5.33290434,30.504659 3.80254846,30.504659 Z" id="Path"></path>
                </g>
            </g>
        </g>
    </g>
</svg>