<?xml version="1.0" encoding="UTF-8"?>
<svg width="101px" height="22px" viewBox="0 0 101 22" version="1.1" xmlns="http://www.w3.org/2000/svg" xmlns:xlink="http://www.w3.org/1999/xlink">
    <title>3i-visa</title>
    <g id="Page-1" stroke="none" stroke-width="1" fill="none" fill-rule="evenodd">
        <g id="Artboard" transform="translate(-3161.000000, -3175.000000)" fill-rule="nonzero">
            <g id="3i-visa" transform="translate(3161.728802, 3175.355387)">
                <g id="visa" transform="translate(31.120457, 0.413385)" fill="#000000">
                    <path d="M9.66413184,20.4117807 C8.99313313,20.4117807 8.40936425,20.2373211 7.91282521,19.8884017 C7.41628616,19.5394824 7.00697695,19.0026834 6.68489757,18.2780048 L0.283569889,3.42209341 C0.0420103539,2.83161455 -0.0452194782,2.28139561 0.0218803927,1.77143659 C0.0889802636,1.26147757 0.330539799,0.85216836 0.746558998,0.543508954 C1.1625782,0.234849548 1.7329271,0.0805198451 2.45760571,0.0805198451 C3.07492452,0.0805198451 3.57146356,0.221429574 3.94722284,0.503249032 C4.32298212,0.785068489 4.65848147,1.31515747 4.9537209,2.09351597 L10.3888104,15.6611099 L9.18101277,15.6611099 L14.777142,2.05325605 C15.0723814,1.3017375 15.4145908,0.785068489 15.80377,0.503249032 C16.1929493,0.221429574 16.7230383,0.0805198451 17.394037,0.0805198451 C17.9845158,0.0805198451 18.4542149,0.234849548 18.8031343,0.543508954 C19.1520536,0.85216836 19.3667732,1.25476759 19.447293,1.75130663 C19.5278129,2.24784567 19.433873,2.79135463 19.1654736,3.38183349 L12.6433661,18.2780048 C12.3481267,19.0026834 11.9522374,19.5394824 11.4556984,19.8884017 C10.9591593,20.2373211 10.3619705,20.4117807 9.66413184,20.4117807 Z" id="Path"></path>
                    <path d="M25.1216305,20.3715208 C24.316432,20.3715208 23.6991132,20.1299613 23.2696741,19.6468422 C22.8402349,19.1637231 22.6255153,18.4927244 22.6255153,17.6338461 L22.6255153,2.8584545 C22.6255153,1.9727362 22.8402349,1.29502751 23.2696741,0.825328412 C23.6991132,0.355629316 24.316432,0.120779768 25.1216305,0.120779768 C25.9268289,0.120779768 26.5508577,0.355629316 26.9937169,0.825328412 C27.436576,1.29502751 27.6580056,1.9727362 27.6580056,2.8584545 L27.6580056,17.6338461 C27.6580056,18.4927244 27.443286,19.1637231 27.0138469,19.6468422 C26.5844077,20.1299613 25.9536689,20.3715208 25.1216305,20.3715208 Z" id="Shape"></path>
                    <path d="M39.8141906,20.4923006 C38.6600729,20.4923006 37.4388552,20.3715208 36.1505377,20.1299613 C34.8622202,19.8884017 33.7081024,19.4723825 32.6881843,18.8819037 C32.2587452,18.6135042 31.9567958,18.2981348 31.7823361,17.9357955 C31.6078764,17.5734562 31.5407766,17.2111169 31.5810365,16.8487776 C31.6212964,16.4864383 31.7554961,16.1710689 31.9836357,15.9026694 C32.2117753,15.6342699 32.5070147,15.4598103 32.869354,15.3792904 C33.2316933,15.2987706 33.6275825,15.3658704 34.0570217,15.58059 C35.1306196,16.090549 36.1371177,16.4461784 37.0765159,16.647478 C38.0159141,16.8487776 38.9418923,16.9494274 39.8544506,16.9494274 C41.1427681,16.9494274 42.1022962,16.7279978 42.733035,16.2851387 C43.3637738,15.8422795 43.6791432,15.2585106 43.6791432,14.533832 C43.6791432,13.9165132 43.4711336,13.4401041 43.0551144,13.1046048 C42.6390952,12.7691054 42.0150664,12.5208359 41.183028,12.3597962 L37.1570357,11.5948577 C35.4929589,11.2727783 34.2247714,10.6621695 33.3524731,9.76303121 C32.4801747,8.86389294 32.0440256,7.70306518 32.0440256,6.28054791 C32.0440256,4.99223039 32.3996549,3.87837254 33.1109135,2.93897434 C33.8221722,1.99957615 34.8085403,1.27489755 36.0700178,0.764938528 C37.3314954,0.254979509 38.7808526,2.76140168e-14 40.4180895,2.76140168e-14 C41.5990472,2.76140168e-14 42.7061951,0.127489755 43.7395331,0.382469264 C44.7728711,0.637448773 45.7726592,1.03333801 46.7388973,1.57013698 C47.1414965,1.78485657 47.416606,2.06667602 47.5642257,2.41559535 C47.7118454,2.76451468 47.7453954,3.120144 47.6648755,3.4824833 C47.5843557,3.8448226 47.423316,4.16690198 47.1817565,4.44872144 C46.9401969,4.7305409 46.6382475,4.90500056 46.2759082,4.97210043 C45.9135689,5.0392003 45.5042597,4.96539045 45.0479806,4.75067086 C44.2159422,4.32123168 43.4174537,4.01257228 42.6525152,3.82469264 C41.8875766,3.636813 41.156188,3.54287318 40.4583494,3.54287318 C39.1431919,3.54287318 38.1702438,3.77101274 37.539505,4.22729187 C36.9087662,4.68357099 36.5933968,5.28746983 36.5933968,6.03898838 C36.5933968,6.60262729 36.7812765,7.07232639 37.1570357,7.44808567 C37.532795,7.82384494 38.1098539,8.07882445 38.8882124,8.2130242 L42.9142047,8.97796272 C44.6588013,9.3000421 45.9806688,9.89052097 46.879807,10.7493993 C47.7789453,11.6082777 48.2285144,12.7623954 48.2285144,14.2117527 C48.2285144,16.1710689 47.4635759,17.7076559 45.9336989,18.8215138 C44.4038218,19.9353716 42.3639857,20.4923006 39.8141906,20.4923006 Z" id="Path"></path>
                    <path d="M58.4522232,20.4923006 C57.0297059,20.4923006 55.7615183,20.2171911 54.6476605,19.6669722 C53.5338026,19.1167532 52.6615043,18.3719446 52.0307655,17.4325465 C51.4000267,16.4931483 51.0846573,15.4329703 51.0846573,14.2520126 C51.0846573,12.8026554 51.4604166,11.6552476 52.2119352,10.8097892 C52.9634537,9.96433083 54.1846714,9.353722 55.8755881,8.97796272 C57.5665049,8.60220345 59.8344805,8.41432381 62.679515,8.41432381 L64.6925112,8.41432381 L64.6925112,11.3130382 L62.719775,11.3130382 C61.0556982,11.3130382 59.7271207,11.3935581 58.7340426,11.5545978 C57.7409645,11.7156375 57.0364159,11.9907469 56.6203967,12.3799262 C56.2043775,12.7691054 55.9963679,13.3126144 55.9963679,14.010453 C55.9963679,14.8961713 56.3050273,15.6208499 56.9223461,16.1844889 C57.5396649,16.7481278 58.3985433,17.0299472 59.4989812,17.0299472 C60.3846995,17.0299472 61.1697679,16.8219376 61.8541866,16.4059184 C62.5386053,15.9898992 63.0821143,15.4195503 63.4847135,14.6948717 C63.8873127,13.9701931 64.0886123,13.1381547 64.0886123,12.1987565 L64.0886123,7.56886544 C64.0886123,6.22686802 63.7933729,5.26062988 63.202894,4.67015101 C62.6124152,4.07967215 61.6193371,3.78443272 60.2236598,3.78443272 C59.4453013,3.78443272 58.6065529,3.87837254 57.7074146,4.06625218 C56.8082763,4.25413181 55.8621682,4.57621119 54.8690901,5.03249032 C54.359131,5.27404985 53.9095619,5.34114972 53.5203827,5.23378993 C53.1312034,5.12643014 52.829254,4.90500056 52.6145344,4.56950121 C52.3998148,4.23400185 52.292455,3.86495256 52.292455,3.46235334 C52.292455,3.05975411 52.3998148,2.66386487 52.6145344,2.27468562 C52.829254,1.88550637 53.1915933,1.59697693 53.7015523,1.40909729 C54.9361899,0.89913827 56.1238577,0.536798967 57.2645555,0.32207938 C58.4052533,0.107359793 59.4453013,2.76140168e-14 60.3846995,2.76140168e-14 C62.3171757,2.76140168e-14 63.9074427,0.295239432 65.1555003,0.885718296 C66.4035579,1.47619716 67.3362461,2.36862544 67.9535649,3.56300314 C68.5708837,4.75738085 68.8795431,6.29396789 68.8795431,8.17276427 L68.8795431,17.8351457 C68.8795431,18.6671841 68.6782435,19.3046329 68.2756443,19.747492 C67.873045,20.1903511 67.2959862,20.4117807 66.5444676,20.4117807 C65.792949,20.4117807 65.2091802,20.1903511 64.793161,19.747492 C64.3771418,19.3046329 64.1691322,18.6671841 64.1691322,17.8351457 L64.1691322,15.9026694 L64.4912115,15.9026694 C64.3033319,16.8420676 63.9342826,17.653976 63.3840637,18.3383947 C62.8338447,19.0228134 62.1427161,19.5529024 61.3106777,19.9286617 C60.4786393,20.3044209 59.5258211,20.4923006 58.4522232,20.4923006 Z" id="Path"></path>
                </g>
                <g id="3i" fill="#00D475">
                    <path d="M20.0684029,20.4444919 C19.1218753,20.4444919 18.4295934,20.1302758 17.991557,19.5018436 C17.5535207,18.8734113 17.4183774,18.0062504 17.586127,16.9003606 L19.7979065,3.01320358 C19.9572687,2.01299613 20.3289391,1.26074367 20.9129177,0.756446201 C21.4968962,0.252148734 22.293183,-2.76140168e-14 23.3017779,-2.76140168e-14 C24.2483055,-2.76140168e-14 24.9405874,0.309602998 25.3786238,0.928808994 C25.8166601,1.54801499 25.9518034,2.41978909 25.7840538,3.54413131 L23.5722743,17.4312883 C23.4129121,18.4314958 23.0458548,19.1837482 22.4711025,19.6880457 C21.8963501,20.1923432 21.0954503,20.4444919 20.0684029,20.4444919 Z" id="Path"></path>
                    <path d="M11.2384358,20.4744377 C10.2919083,20.4744377 9.59962631,20.1602216 9.16158997,19.5317894 C8.72355362,18.9033572 8.58841029,18.0361962 8.75615997,16.9303064 L10.9679395,3.04314941 C11.1273017,2.04294196 11.498972,1.2906895 12.0829506,0.786392029 C12.6669292,0.282094562 13.4632159,0.0299458288 14.4718108,0.0299458288 C15.4183384,0.0299458288 16.1106203,0.339548827 16.5486567,0.958754823 C16.986693,1.57796082 17.1218364,2.44973492 16.9540867,3.57407713 L14.7423072,17.4612342 C14.582945,18.4614416 14.2158877,19.2136941 13.6411354,19.7179915 C13.0663831,20.222289 12.2654832,20.4744377 11.2384358,20.4744377 Z" id="Path"></path>
                    <path d="M2.5519538,20.4721863 C1.60542625,20.4721863 0.913144301,20.1579702 0.475107956,19.529538 C0.0370716117,18.9011057 -0.098071722,18.0339447 0.0696779552,16.928055 L2.28145745,3.04089797 C2.44081964,2.04069052 2.81249002,1.28843806 3.39646858,0.78414059 C3.98044715,0.279843123 4.7767339,0.0276943896 5.78532883,0.0276943896 C6.73185639,0.0276943896 7.42413833,0.337297388 7.86217468,0.956503384 C8.30021102,1.57570938 8.43535436,2.44748348 8.26760468,3.57182569 L6.05582519,17.4589827 C5.89646299,18.4591902 5.52940573,19.2114426 4.9546534,19.7157401 C4.37990107,20.2200376 3.5790012,20.4721863 2.5519538,20.4721863 Z" id="Path"></path>
                </g>
            </g>
        </g>
    </g>
</svg>