<?xml version="1.0" encoding="UTF-8"?>
<svg width="101px" height="23px" viewBox="0 0 101 23" version="1.1" xmlns="http://www.w3.org/2000/svg" xmlns:xlink="http://www.w3.org/1999/xlink">
    <title>3i-visa</title>
    <g id="Page-1" stroke="none" stroke-width="1" fill="none" fill-rule="evenodd">
        <g id="Artboard" transform="translate(-3161.000000, -3239.000000)" fill-rule="nonzero">
            <g id="3i-visa" transform="translate(3161.378375, 3239.886637)">
                <g id="visa" transform="translate(31.470884, 0.882135)" fill="#000000">
                    <path d="M9.66413184,20.4117807 C8.99313313,20.4117807 8.40936425,20.2373211 7.91282521,19.8884017 C7.41628616,19.5394824 7.00697695,19.0026834 6.68489757,18.2780048 L0.283569889,3.42209341 C0.0420103539,2.83161455 -0.0452194782,2.28139561 0.0218803927,1.77143659 C0.0889802636,1.26147757 0.330539799,0.85216836 0.746558998,0.543508954 C1.1625782,0.234849548 1.7329271,0.0805198451 2.45760571,0.0805198451 C3.07492452,0.0805198451 3.57146356,0.221429574 3.94722284,0.503249032 C4.32298212,0.785068489 4.65848147,1.31515747 4.9537209,2.09351597 L10.3888104,15.6611099 L9.18101277,15.6611099 L14.777142,2.05325605 C15.0723814,1.3017375 15.4145908,0.785068489 15.80377,0.503249032 C16.1929493,0.221429574 16.7230383,0.0805198451 17.394037,0.0805198451 C17.9845158,0.0805198451 18.4542149,0.234849548 18.8031343,0.543508954 C19.1520536,0.85216836 19.3667732,1.25476759 19.447293,1.75130663 C19.5278129,2.24784567 19.433873,2.79135463 19.1654736,3.38183349 L12.6433661,18.2780048 C12.3481267,19.0026834 11.9522374,19.5394824 11.4556984,19.8884017 C10.9591593,20.2373211 10.3619705,20.4117807 9.66413184,20.4117807 Z" id="Path"></path>
                    <path d="M25.1216305,20.3715208 C24.316432,20.3715208 23.6991132,20.1299613 23.2696741,19.6468422 C22.8402349,19.1637231 22.6255153,18.4927244 22.6255153,17.6338461 L22.6255153,2.8584545 C22.6255153,1.9727362 22.8402349,1.29502751 23.2696741,0.825328412 C23.6991132,0.355629316 24.316432,0.120779768 25.1216305,0.120779768 C25.9268289,0.120779768 26.5508577,0.355629316 26.9937169,0.825328412 C27.436576,1.29502751 27.6580056,1.9727362 27.6580056,2.8584545 L27.6580056,17.6338461 C27.6580056,18.4927244 27.443286,19.1637231 27.0138469,19.6468422 C26.5844077,20.1299613 25.9536689,20.3715208 25.1216305,20.3715208 Z" id="Shape"></path>
                    <path d="M39.8141906,20.4923006 C38.6600729,20.4923006 37.4388552,20.3715208 36.1505377,20.1299613 C34.8622202,19.8884017 33.7081024,19.4723825 32.6881843,18.8819037 C32.2587452,18.6135042 31.9567958,18.2981348 31.7823361,17.9357955 C31.6078764,17.5734562 31.5407766,17.2111169 31.5810365,16.8487776 C31.6212964,16.4864383 31.7554961,16.1710689 31.9836357,15.9026694 C32.2117753,15.6342699 32.5070147,15.4598103 32.869354,15.3792904 C33.2316933,15.2987706 33.6275825,15.3658704 34.0570217,15.58059 C35.1306196,16.090549 36.1371177,16.4461784 37.0765159,16.647478 C38.0159141,16.8487776 38.9418923,16.9494274 39.8544506,16.9494274 C41.1427681,16.9494274 42.1022962,16.7279978 42.733035,16.2851387 C43.3637738,15.8422795 43.6791432,15.2585106 43.6791432,14.533832 C43.6791432,13.9165132 43.4711336,13.4401041 43.0551144,13.1046048 C42.6390952,12.7691054 42.0150664,12.5208359 41.183028,12.3597962 L37.1570357,11.5948577 C35.4929589,11.2727783 34.2247714,10.6621695 33.3524731,9.76303121 C32.4801747,8.86389294 32.0440256,7.70306518 32.0440256,6.28054791 C32.0440256,4.99223039 32.3996549,3.87837254 33.1109135,2.93897434 C33.8221722,1.99957615 34.8085403,1.27489755 36.0700178,0.764938528 C37.3314954,0.254979509 38.7808526,2.76140168e-14 40.4180895,2.76140168e-14 C41.5990472,2.76140168e-14 42.7061951,0.127489755 43.7395331,0.382469264 C44.7728711,0.637448773 45.7726592,1.03333801 46.7388973,1.57013698 C47.1414965,1.78485657 47.416606,2.06667602 47.5642257,2.41559535 C47.7118454,2.76451468 47.7453954,3.120144 47.6648755,3.4824833 C47.5843557,3.8448226 47.423316,4.16690198 47.1817565,4.44872144 C46.9401969,4.7305409 46.6382475,4.90500056 46.2759082,4.97210043 C45.9135689,5.0392003 45.5042597,4.96539045 45.0479806,4.75067086 C44.2159422,4.32123168 43.4174537,4.01257228 42.6525152,3.82469264 C41.8875766,3.636813 41.156188,3.54287318 40.4583494,3.54287318 C39.1431919,3.54287318 38.1702438,3.77101274 37.539505,4.22729187 C36.9087662,4.68357099 36.5933968,5.28746983 36.5933968,6.03898838 C36.5933968,6.60262729 36.7812765,7.07232639 37.1570357,7.44808567 C37.532795,7.82384494 38.1098539,8.07882445 38.8882124,8.2130242 L42.9142047,8.97796272 C44.6588013,9.3000421 45.9806688,9.89052097 46.879807,10.7493993 C47.7789453,11.6082777 48.2285144,12.7623954 48.2285144,14.2117527 C48.2285144,16.1710689 47.4635759,17.7076559 45.9336989,18.8215138 C44.4038218,19.9353716 42.3639857,20.4923006 39.8141906,20.4923006 Z" id="Path"></path>
                    <path d="M58.4522232,20.4923006 C57.0297059,20.4923006 55.7615183,20.2171911 54.6476605,19.6669722 C53.5338026,19.1167532 52.6615043,18.3719446 52.0307655,17.4325465 C51.4000267,16.4931483 51.0846573,15.4329703 51.0846573,14.2520126 C51.0846573,12.8026554 51.4604166,11.6552476 52.2119352,10.8097892 C52.9634537,9.96433083 54.1846714,9.353722 55.8755881,8.97796272 C57.5665049,8.60220345 59.8344805,8.41432381 62.679515,8.41432381 L64.6925112,8.41432381 L64.6925112,11.3130382 L62.719775,11.3130382 C61.0556982,11.3130382 59.7271207,11.3935581 58.7340426,11.5545978 C57.7409645,11.7156375 57.0364159,11.9907469 56.6203967,12.3799262 C56.2043775,12.7691054 55.9963679,13.3126144 55.9963679,14.010453 C55.9963679,14.8961713 56.3050273,15.6208499 56.9223461,16.1844889 C57.5396649,16.7481278 58.3985433,17.0299472 59.4989812,17.0299472 C60.3846995,17.0299472 61.1697679,16.8219376 61.8541866,16.4059184 C62.5386053,15.9898992 63.0821143,15.4195503 63.4847135,14.6948717 C63.8873127,13.9701931 64.0886123,13.1381547 64.0886123,12.1987565 L64.0886123,7.56886544 C64.0886123,6.22686802 63.7933729,5.26062988 63.202894,4.67015101 C62.6124152,4.07967215 61.6193371,3.78443272 60.2236598,3.78443272 C59.4453013,3.78443272 58.6065529,3.87837254 57.7074146,4.06625218 C56.8082763,4.25413181 55.8621682,4.57621119 54.8690901,5.03249032 C54.359131,5.27404985 53.9095619,5.34114972 53.5203827,5.23378993 C53.1312034,5.12643014 52.829254,4.90500056 52.6145344,4.56950121 C52.3998148,4.23400185 52.292455,3.86495256 52.292455,3.46235334 C52.292455,3.05975411 52.3998148,2.66386487 52.6145344,2.27468562 C52.829254,1.88550637 53.1915933,1.59697693 53.7015523,1.40909729 C54.9361899,0.89913827 56.1238577,0.536798967 57.2645555,0.32207938 C58.4052533,0.107359793 59.4453013,2.76140168e-14 60.3846995,2.76140168e-14 C62.3171757,2.76140168e-14 63.9074427,0.295239432 65.1555003,0.885718296 C66.4035579,1.47619716 67.3362461,2.36862544 67.9535649,3.56300314 C68.5708837,4.75738085 68.8795431,6.29396789 68.8795431,8.17276427 L68.8795431,17.8351457 C68.8795431,18.6671841 68.6782435,19.3046329 68.2756443,19.747492 C67.873045,20.1903511 67.2959862,20.4117807 66.5444676,20.4117807 C65.792949,20.4117807 65.2091802,20.1903511 64.793161,19.747492 C64.3771418,19.3046329 64.1691322,18.6671841 64.1691322,17.8351457 L64.1691322,15.9026694 L64.4912115,15.9026694 C64.3033319,16.8420676 63.9342826,17.653976 63.3840637,18.3383947 C62.8338447,19.0228134 62.1427161,19.5529024 61.3106777,19.9286617 C60.4786393,20.3044209 59.5258211,20.4923006 58.4522232,20.4923006 Z" id="Path"></path>
                </g>
                <g id="3i" transform="translate(17.866876, 0.468750)" fill="#00D475">
                    <path d="M2.5519538,20.4444919 C1.60542625,20.4444919 0.913144301,20.1302758 0.475107956,19.5018436 C0.0370716117,18.8734113 -0.098071722,18.0062504 0.0696779552,16.9003606 L2.28145745,3.01320358 C2.44081964,2.01299613 2.81249002,1.26074367 3.39646858,0.756446201 C3.98044715,0.252148734 4.7767339,0 5.78532883,0 C6.73185639,0 7.42413833,0.309602998 7.86217468,0.928808994 C8.30021102,1.54801499 8.43535436,2.41978909 8.26760468,3.54413131 L6.05582519,17.4312883 C5.89646299,18.4314958 5.52940573,19.1837482 4.9546534,19.6880457 C4.37990107,20.1923432 3.5790012,20.4444919 2.5519538,20.4444919 Z" id="Path"></path>
                </g>
                <g id="3" fill="#00D475">
                    <path d="M7.34328231,21.7875 C6.28859481,21.7875 5.21726668,21.6663281 4.12929793,21.4239844 C3.04132918,21.1816406 2.09546981,20.8273437 1.29171981,20.3610937 C0.778907308,20.0885938 0.424297933,19.7573438 0.227891683,19.3673437 C0.0314854327,18.9773437 -0.0379676923,18.5896875 0.0195323077,18.204375 C0.0770323077,17.8190625 0.234922933,17.4819531 0.493204183,17.1930469 C0.751485433,16.9041406 1.08539168,16.719375 1.49492293,16.63875 C1.90445418,16.558125 2.35984481,16.6340625 2.86109481,16.8665625 C3.64359481,17.25 4.38195418,17.5210937 5.07617293,17.6798437 C5.77039168,17.8385938 6.47359481,17.9179688 7.18578231,17.9179688 C7.98453231,17.9179688 8.65414168,17.8167969 9.19461043,17.6144531 C9.73507918,17.4121094 10.1430479,17.1069531 10.4185167,16.6989844 C10.6939854,16.2910156 10.8317198,15.7939062 10.8317198,15.2076562 C10.8317198,14.3517187 10.5421886,13.7179688 9.96312606,13.3064063 C9.38406356,12.8948437 8.53593856,12.6890625 7.41875106,12.6890625 L5.64921981,12.6890625 C4.98890731,12.6890625 4.48554793,12.5239844 4.13914168,12.1938281 C3.79273543,11.8636719 3.61953231,11.4015625 3.61953231,10.8075 C3.61953231,10.2071875 3.79273543,9.74359375 4.13914168,9.41671875 C4.48554793,9.08984375 4.98890731,8.92640625 5.64921981,8.92640625 L6.97390731,8.92640625 C7.64015731,8.92640625 8.21195418,8.82328125 8.68929793,8.61703125 C9.16664168,8.41078125 9.53648543,8.11367188 9.79882918,7.72570313 C10.0611729,7.33773438 10.1923448,6.86390625 10.1923448,6.30421875 C10.1923448,5.50953125 9.92023543,4.90507813 9.37601668,4.49085937 C8.83179793,4.07664063 8.03921981,3.86953125 6.99828231,3.86953125 C6.35234481,3.86953125 5.72156356,3.94359375 5.10593856,4.09171875 C4.49031356,4.23984375 3.81765731,4.50625 3.08796981,4.8909375 C2.65265731,5.1109375 2.24492293,5.180625 1.86476668,5.1 C1.48461043,5.019375 1.17203231,4.83773438 0.927032308,4.55507813 C0.682032308,4.27242188 0.524219808,3.94476563 0.453594808,3.57210938 C0.382969808,3.19945313 0.429610433,2.82617188 0.593516683,2.45226562 C0.757422933,2.07835937 1.07312606,1.76515625 1.54062606,1.51265625 C2.38812606,1.02140625 3.31937606,0.646484375 4.33437606,0.387890625 C5.34937606,0.129296875 6.38187606,0 7.43187606,0 C8.94812606,0 10.2466417,0.228125 11.3274229,0.684375 C12.4082042,1.140625 13.2345323,1.793125 13.8064073,2.641875 C14.3782823,3.490625 14.6642198,4.5175 14.6642198,5.7225 C14.6642198,6.54375 14.5073448,7.2946875 14.1935948,7.9753125 C13.8798448,8.6559375 13.4345323,9.23 12.8576573,9.6975 C12.2807823,10.165 11.5885948,10.49875 10.7810948,10.69875 L10.7810948,10.310625 C12.2023448,10.544375 13.3114073,11.1346875 14.1082823,12.0815625 C14.9051573,13.0284375 15.3035948,14.211875 15.3035948,15.631875 C15.3035948,16.890625 14.9826573,17.9846875 14.3407823,18.9140625 C13.6989073,19.8434375 12.7844542,20.5546875 11.5974229,21.0478125 C10.4103917,21.5409375 8.99234481,21.7875 7.34328231,21.7875 Z" id="Path"></path>
                </g>
            </g>
        </g>
    </g>
</svg>