<svg width="196" height="76" viewBox="0 0 196 76" fill="none" xmlns="http://www.w3.org/2000/svg">
<path d="M34.2333 60.2344L24.3767 30.9394L31.3929 28.6094C31.3929 28.6094 48.9201 44.9586 51.4203 46.5555C53.9204 48.1656 58.1877 50.4563 58.1877 50.4563L34.2464 60.2344H34.2333Z" fill="#00D474"/>
<path d="M24.5975 72.483C24.5975 72.483 20.8015 71.2133 22.5948 68.8571C24.3881 66.4878 37.3339 57.7308 49.0624 52.5472C60.8039 47.3374 162.682 3.08075 165.378 1.83722C168.075 0.593684 172.238 0.0831806 176.858 0.00464165C186.571 -0.165526 193.325 4.38973 194.988 6.01287C196.663 7.62292 192.762 9.41622 191.074 10.7776C189.385 12.1389 69.2992 63.6604 63.5135 65.8988C57.7409 68.1502 30.8675 72.0117 29.8465 71.8939C28.8386 71.7892 24.5844 72.483 24.5844 72.483H24.5975Z" fill="#E7EEEF"/>
<path d="M43.8147 70.8339L55.0065 75.3237L59.5356 73.3472L55.1505 68.373L43.8147 70.8339Z" fill="#0B3947"/>
<path d="M140.052 37.0352L166.481 60.5576L159.085 62.4556L130.34 53.3843L109.213 51.0151L140.052 37.0352Z" fill="#0B3947"/>
<path d="M147.813 43.9969C146.426 45.2666 144.829 47.361 144.842 50.2015C144.881 55.8694 149.475 57.8459 154.45 56.406C159.411 54.9662 165.864 51.3926 166.819 49.9004C167.775 48.4213 162.958 38.0803 162.958 38.0803C162.958 38.0803 161.256 37.7007 156.714 39.4285C154.083 40.4234 150.143 41.8633 147.813 43.9969Z" fill="#B0C1C5"/>
<path d="M167.644 43.5413C168.639 47.0494 167.605 50.2826 165.34 50.78C163.076 51.2774 160.445 48.8296 159.45 45.3215C158.455 41.8135 159.489 38.5803 161.754 38.0829C164.018 37.5985 166.649 40.0332 167.644 43.5413Z" fill="#0B3947"/>
<path d="M174.818 4.49339C176.519 4.42795 179.033 3.47239 182.75 2.73936C186.245 2.0456 187.921 1.92779 187.921 1.92779C187.921 1.92779 185.447 0.906783 183.313 0.487908C182.069 0.239202 180.342 0.226112 178.234 0.448639C176.127 0.671166 174.137 1.28639 173.417 2.39902C172.697 3.51166 174.202 4.51957 174.831 4.49339H174.818Z" fill="#0B3947"/>
<path d="M27.0468 72.5497C27.0468 72.5497 46.0401 71.9999 55.3208 70.6386C64.5884 69.2772 73.3455 67.052 78.4898 64.9445C83.6472 62.837 171.022 26.1201 181.389 20.7926C191.311 15.6875 193.536 12.1925 194.557 10.0982C195.617 7.93836 195.487 7.37549 195.5 6.83881C195.526 5.47747 181.69 11.6951 175.512 14.4178C169.255 17.1667 85.1656 54.1061 73.6073 58.596C62.049 63.0858 48.1345 65.0231 42.532 66.5676C36.9296 68.1122 26.2352 70.2197 24.5466 71.568C22.8581 72.9293 27.0468 72.5366 27.0468 72.5366V72.5497Z" fill="#B0C1C5"/>
<path d="M0.500244 59.7971L6.52156 57.166L42.1782 60.2945L31.209 65.9886L0.500244 59.7971Z" fill="#0B3947"/>
<path d="M13.4333 17.7512L19.0227 14.4395L103.583 28.5241L131.791 34.1135L98.6611 48.185L76.8666 38.4069L13.4333 17.7512Z" fill="#0B3947"/>
<path d="M96.3564 29.5821C94.4977 31.3754 93.961 33.9672 94.5893 37.0564C95.4139 41.1143 99.1576 44.2166 104.655 42.6196C110.153 41.0226 117.51 37.1873 118.557 35.5511C119.604 33.9149 113.609 23.0241 113.609 23.0241C113.609 23.0241 110.821 22.9325 105.794 24.8436C102.875 25.9432 98.8697 27.1605 96.3433 29.5821H96.3564Z" fill="#B0C1C5"/>
<path d="M119.578 28.6843C120.613 32.3363 119.618 35.7004 117.34 36.1978C115.062 36.6952 112.366 34.1427 111.332 30.4776C110.298 26.8255 111.306 23.4614 113.583 22.964C115.861 22.4666 118.557 25.0322 119.592 28.6843H119.578Z" fill="#0B3947"/>
</svg>
